<?xml version="1.0" ?><svg id="engineering_x5F_thinking" style="enable-background:new 0 0 64 64;" version="1.1" viewBox="0 0 64 64" xml:space="preserve" xmlns="http://www.w3.org/2000/svg" xmlns:xlink="http://www.w3.org/1999/xlink"><style type="text/css">
	.st0{fill:#F2EFEE;}
	.st1{fill:#FFFFFF;}
	.st2{fill:none;stroke:#47230F;stroke-width:2;stroke-miterlimit:10;}
	.st3{fill:#F66913;stroke:#47230F;stroke-width:2;stroke-miterlimit:10;}
</style><circle class="st0" cx="31.5" cy="31.5" r="28.5"/><path class="st1" d="M56,35v-8h-4c-0.4-1.9-1.2-3.5-2.2-5.2l2.6-3l-5-5.2l-3.1,2.5c-1.6-1-3.4-1.8-5.2-2.2l0-3.9h-7v43h7l0-4.5  c1.9-0.4,3.6-1.2,5.2-2.2l3.1,2.8l5-5.2l-2.6-3.3c1-1.6,1.8-3.6,2.2-5.6L56,35z"/><path class="st2" d="M32,53h7l0-4.5c1.9-0.4,3.6-1.2,5.2-2.2l3.1,2.8l5-5.2l-2.6-3.3c1-1.6,1.8-3.6,2.2-5.6l4,0v-8h-4  c-0.4-1.9-1.2-3.5-2.2-5.2l2.6-3l-5-5.2l-3.1,2.5c-1.6-1-3.4-1.8-5.2-2.2l0-3.9h-7"/><line class="st2" x1="32" x2="32" y1="6" y2="57"/><path class="st0" d="M33,36h1.7c2.9,0,5.3-2.2,5.3-5s-2.4-5-5.3-5H33"/><path class="st2" d="M33,36h1.7c2.9,0,5.3-2.2,5.3-5s-2.4-5-5.3-5H33"/><line class="st2" x1="32" x2="32" y1="4" y2="2"/><line class="st2" x1="32" x2="32" y1="61" y2="59"/><path class="st3" d="M26,10c-3.1-0.2-6.6,1.6-7.4,4.2c-4-0.1-7.1,3.1-7.1,7.3c0,0.3,0,0.6,0.1,1c-2.9,1-5,4.3-5,8.3  c0,2.5,0.8,4.9,2.2,6.7c-0.2,0.9-0.3,1.9-0.2,3c0.5,4.3,4.2,7.6,8.2,7.5c1.1,2.8,4,5.1,7.4,5.1c5.3,0,7.8-3,7.8-3V13  C32,13,29.8,10.2,26,10z"/><path class="st2" d="M25.2,22.9c-3.8-0.2-6.8-3.3-6.8-6.8c0-0.6,0.1-1.2,0.3-1.8"/><path class="st2" d="M16.4,31.1c2.1,1.3,4.6,0.4,6.4-1.4c2.3-2.4,6-3.1,8.2-0.4c0.4,0.5,0.7,1,1,1.5"/><path class="st2" d="M31.9,19.1c-3,0.4-5.7-1.5-6.8-4.2"/><path class="st2" d="M31.9,43.1c-3-0.8-5.7,0.7-6.8,3.4"/><path class="st2" d="M18.1,41.4c-1.7-0.5-3.4-1.8-3.4-3.4"/><path class="st2" d="M17.3,49c-0.6-1-1-2.2-1-3.4c0-3.5,2.9-6.4,6.9-6.4c0.5,0,0.8-0.4,0.8-0.9c0-0.4,0,0.2,0,0c0-2.6,2.4-3.5,4-3.4  "/><path class="st2" d="M12.4,27.5c1.9,0.1,3.4,1.7,3.4,3.4c0,1.8-1.5,3.1-3.4,3"/><path class="st2" d="M17,24.8c0-2.1,1.8-3.7,4-3.5"/><path class="st2" d="M35.2,19.2C41.7,19.2,47,24.5,47,31s-5.3,11.8-11.8,11.8"/></svg>