<?xml version="1.0" ?><svg id="flag" style="enable-background:new 0 0 64 64;" version="1.1" viewBox="0 0 64 64" xml:space="preserve" xmlns="http://www.w3.org/2000/svg" xmlns:xlink="http://www.w3.org/1999/xlink"><style type="text/css">
	.st0{fill:#F2EFEE;}
	.st1{fill:#FFFFFF;}
	.st2{fill:none;stroke:#47230F;stroke-width:2;stroke-miterlimit:10;}
	.st3{fill:#F66913;}
	.st4{fill:#F66913;stroke:#47230F;stroke-width:2;stroke-miterlimit:10;}
	.st5{fill:#FFFFFF;stroke:#47230F;stroke-width:2;stroke-miterlimit:10;}
</style><circle class="st0" cx="28.8" cy="35" r="22.6"/><path class="st1" d="M20.4,2C20.5,2,20.5,2,20.4,2c0.1,0,0.1,0,0.1,0H20.4z M20.5,2C19.1,2,18,3.2,18,4.6V51h5V4.6  C23,3.2,21.9,2,20.5,2z"/><path class="st2" d="M23,8v43h-5V4.6C18,3.1,19.1,2,20.6,2l0,0c0.8,0,1.5,0.4,2,1"/><line class="st2" x1="9" x2="42" y1="51" y2="51"/><path class="st3" d="M53.3,24.6c0,0,5.2-6.3,6.7-10.6c-6.8,1.9-20.5,1.2-22,0c0,1.4,0,7,0,7v7c0,0,0,3.7,0,5c2.6,3.7,18.6,2.2,24-1  C57.8,28.9,53.3,24.6,53.3,24.6z"/><path class="st2" d="M38,28c0,0,0,3.7,0,5c2.6,3.7,18.6,2.2,24-1c-4.2-3.1-8.7-7.4-8.7-7.4S58.5,18.3,60,14c-6.8,1.9-20.5,1.2-22,0  c0,1.4,0,7,0,7"/><polygon class="st0" points="43,10 38,13 38,28 38,32 39,33 44,28 44,27 44,12 "/><polyline class="st2" points="38,13 43,10 44,12 44,27 44,28 39,33 38,32 38,28 "/><path class="st4" d="M44,8.2C39.1,4.4,21.9,4.1,18,8c0,4.8,0,13.5,0,19c5.5-2.4,17.3-3.2,24.9,0H44C44,27,44,13.4,44,8.2z"/><line class="st2" x1="23" x2="23" y1="8" y2="23"/><line class="st2" x1="44" x2="48" y1="51" y2="51"/><line class="st2" x1="50" x2="52" y1="51" y2="51"/><line class="st2" x1="7" x2="5" y1="51" y2="51"/><path class="st5" d="M27,51H14v-3c0-1.1,0.9-2,2-2h9c1.1,0,2,0.9,2,2V51z"/><line class="st2" x1="25" x2="38" y1="56" y2="56"/><line class="st2" x1="12" x2="31" y1="61" y2="61"/><line class="st2" x1="1" x2="17" y1="56" y2="56"/></svg>