<?xml version="1.0" ?><svg id="tools" style="enable-background:new 0 0 64 64;" version="1.1" viewBox="0 0 64 64" xml:space="preserve" xmlns="http://www.w3.org/2000/svg" xmlns:xlink="http://www.w3.org/1999/xlink"><style type="text/css">
	.st0{fill:#F2EFEE;}
	.st1{fill:#FFFFFF;}
	.st2{fill:#F66913;}
	.st3{fill:none;stroke:#47230F;stroke-width:2;stroke-linejoin:round;stroke-miterlimit:10;}
	.st4{fill:none;stroke:#47230F;stroke-width:2;stroke-miterlimit:10;}
	.st5{fill:#E9EAEB;stroke:#47230F;stroke-width:2;stroke-miterlimit:10;}
	.st6{fill:#FFFFFF;stroke:#47230F;stroke-width:2;stroke-miterlimit:10;}
	.st7{fill:#F66913;stroke:#47230F;stroke-width:2;stroke-miterlimit:10;}
</style><circle class="st0" cx="30" cy="31.7" r="25"/><polygon class="st1" points="26,5 22,13 30,13 "/><rect class="st2" height="41" width="8" x="22" y="13"/><polygon class="st3" points="22,12.7 26,4.7 30,12.7 30,54 22,54 "/><line class="st4" x1="26" x2="26" y1="13" y2="54"/><path class="st4" d="M30,54v3.7c0,1.1-0.9,2.3-2,2.3h-4c-1.1,0-2-1.2-2-2.3V54"/><line class="st4" x1="22" x2="30" y1="14" y2="14"/><path class="st5" d="M16,17.7c3.6-4.8-2.1-6.1-1.1-12.6C10,7.6,8.3,12,9.4,16C10.1,18.4,13.3,20.3,16,17.7z"/><rect class="st6" height="11" width="5" x="11" y="19"/><path class="st7" d="M13.4,60L13.4,60c-1.4,0-2.4-1.4-2.4-2.8V29h5v28.2C16,58.6,14.8,60,13.4,60z"/><path class="st6" d="M35,31.7V46h24V31.7c0,0-8.4-1.8-9.2-5.1c-0.8-3.2,2.4-8.1,2.4-11c0-2.8-2.5-4.9-5.2-4.9  c-2.7,0-5.3,2.1-5.3,4.9c0,3,3.2,7.8,2.4,11C43.4,29.8,35,31.7,35,31.7z"/><rect class="st7" height="13" width="20" x="37" y="46"/><rect class="st5" height="7" width="16" x="39" y="35"/><line class="st4" x1="41" x2="41" y1="59" y2="54"/><line class="st4" x1="52" x2="52" y1="59" y2="52"/><line class="st4" x1="48" x2="48" y1="59" y2="55"/><line class="st4" x1="46" x2="48" y1="16" y2="16"/></svg>