<?xml version="1.0" ?><svg id="advertisement" style="enable-background:new 0 0 64 64;" version="1.1" viewBox="0 0 64 64" xml:space="preserve" xmlns="http://www.w3.org/2000/svg" xmlns:xlink="http://www.w3.org/1999/xlink"><style type="text/css">
	.st0{fill:#F2EFEE;}
	.st1{fill:#FFFFFF;}
	.st2{fill:#F66913;}
	.st3{fill:none;stroke:#47230F;stroke-width:2;stroke-miterlimit:10;}
	.st4{fill:none;stroke:#DFD0CB;stroke-width:2;stroke-miterlimit:10;}
</style><circle class="st0" cx="32.5" cy="32.5" r="20.5"/><polygon class="st1" points="43,14 31,23 31,40 43,49 46,49 46,14 "/><path class="st2" d="M31,23H11c-2.8,0-5,2.2-5,5v7c0,2.8,2.2,5,5,5h20V23z"/><line class="st3" x1="28" x2="10" y1="27" y2="27"/><polyline class="st3" points="23,45 27,45 27,41 "/><polygon class="st1" points="21,42 21,40 14,40 14,42.2 17,49 17,51 24,51 24,49 "/><polyline class="st3" points="21,40 21,42 24,49 24,51 17,51 17,49 14,42.2 14,40 "/><path class="st2" d="M45,26.3v10.3c3,0,4.9-2.3,4.9-5.2C49.9,28.6,48,26.3,45,26.3z"/><path class="st3" d="M45.1,26.3c2.7,0,4.9,2.3,4.9,5.2c0,2.8-2.2,5.2-4.9,5.2"/><path class="st3" d="M11,40h20l9.9,7.4c1.4,1,3.1,1.6,4.8,1.6H46V14h-0.3c-1.7,0-3.4,0.6-4.8,1.6L31,23H11c-2.8,0-5,2.2-5,5v7  C6,37.8,8.2,40,11,40z"/><line class="st3" x1="31" x2="31" y1="23" y2="40"/><path class="st3" d="M55.6,49.9c4-4.7,6.4-10.8,6.4-17.4c0-6.8-2.5-13-6.7-17.7"/><path class="st3" d="M50.5,17.3c3.4,4.1,5.5,9.4,5.5,15.2c0,4.9-1.5,9.5-4.1,13.3"/><path class="st4" d="M7.3,17.3C12.4,8.7,21.8,3,32.5,3C37.8,3,42.7,4.4,47,6.8"/><path class="st4" d="M46,58.4c-4,2.1-8.6,3.3-13.5,3.3c-11.3,0-21.1-6.4-26-15.7"/><rect class="st3" height="9" width="4" x="2" y="27"/></svg>