<?xml version="1.0" ?><svg id="idea" style="enable-background:new 0 0 64 64;" version="1.1" viewBox="0 0 64 64" xml:space="preserve" xmlns="http://www.w3.org/2000/svg" xmlns:xlink="http://www.w3.org/1999/xlink"><style type="text/css">
	.st0{fill:#F2EFEE;}
	.st1{fill:none;stroke:#47230F;stroke-width:2;stroke-miterlimit:10;}
	.st2{fill:none;stroke:#DFD0CB;stroke-width:2;stroke-miterlimit:10;}
	.st3{fill:#F66913;}
</style><circle class="st0" cx="32" cy="31" r="24"/><g><line class="st1" x1="32" x2="32" y1="0" y2="14"/><line class="st1" x1="16.3" x2="23.6" y1="3.4" y2="16"/><line class="st1" x1="4.7" x2="17.3" y1="15.1" y2="22.4"/><line class="st1" x1="1" x2="15" y1="31" y2="31"/><line class="st1" x1="5" x2="17.6" y1="46.9" y2="39.6"/><line class="st1" x1="60" x2="47.4" y1="46.5" y2="39.2"/><line class="st1" x1="64" x2="50" y1="31" y2="31"/><line class="st1" x1="59.8" x2="47.2" y1="14.7" y2="22"/><line class="st1" x1="48.1" x2="40.8" y1="3.1" y2="15.7"/></g><g><line class="st2" x1="27" x2="27.7" y1="11.6" y2="14.2"/><line class="st2" x1="18.1" x2="20" y1="16.8" y2="18.7"/><line class="st2" x1="13.1" x2="15.7" y1="25.8" y2="26.5"/><line class="st2" x1="13.2" x2="15.8" y1="36.2" y2="35.5"/><line class="st2" x1="18.4" x2="20.3" y1="45" y2="43.1"/><line class="st2" x1="46.6" x2="44.7" y1="44.7" y2="42.8"/><line class="st2" x1="51.7" x2="49.1" y1="35.7" y2="35"/><line class="st2" x1="51.6" x2="49" y1="25.4" y2="26.1"/><line class="st2" x1="46.3" x2="44.4" y1="16.5" y2="18.4"/><line class="st2" x1="37.3" x2="36.6" y1="11.5" y2="14.1"/></g><path class="st3" d="M33.2,17C24.9,16.6,18,23.3,18,31.5c0,4,1.6,7.6,4.2,10.2c1.7,1.7,2.8,4,2.8,6.5V50h15v-1.8  c0-2.4,0.9-4.7,2.6-6.4c2.7-2.6,4.4-6.3,4.4-10.3C47,23.9,40.8,17.4,33.2,17z"/><path class="st1" d="M40,50v-1.8c0-2.4,0.9-4.7,2.6-6.4c2.7-2.6,4.4-6.3,4.4-10.3c0-7.7-6.2-14.2-13.8-14.5  C24.9,16.6,18,23.3,18,31.5c0,4,1.6,7.6,4.2,10.2c1.7,1.7,2.8,4,2.8,6.5V50"/><path class="st1" d="M22.8,27c1.3-2.9,3.9-5.1,7.2-5.8"/><path class="st1" d="M22,31c0-0.7,0.1-1.4,0.2-2"/><polyline class="st1" points="38,61 36,61 34,63 31,63 29,61 27,61 "/><line class="st1" x1="24" x2="41" y1="53" y2="53"/><line class="st1" x1="24" x2="41" y1="57" y2="57"/><path class="st1" d="M35,44v-8.8c0-1.1,0.9-1.9,1.9-1.9c1.1,0,1.9,0.8,1.9,1.9c0,1.1-0.9,1.9-1.9,1.9h-8.8c-1.1,0-1.9-0.8-1.9-1.9  c0-1.1,0.9-1.9,1.9-1.9c1.1,0,1.9,0.9,1.9,1.9V44"/></svg>