<svg width="581" height="345" viewBox="0 0 581 345" version="1.1" xmlns="http://www.w3.org/2000/svg" xmlns:xlink="http://www.w3.org/1999/xlink">
<title>A</title>
<desc>Created using Figma</desc>
<g id="Canvas" transform="translate(748 -1208)">
<clipPath id="clip-0" clip-rule="evenodd">
<path d="M -748 1208L -167 1208L -167 1553L -748 1553L -748 1208Z" fill="#FFFFFF"/>
</clipPath>
<g id="A" clip-path="url(#clip-0)">
<g id="Group">
<g id="Vector">
<use xlink:href="#path0_fill" transform="matrix(0.707107 -0.707107 -0.707107 -0.707107 -529.894 1486.18)" fill="#231F20"/>
</g>
<g id="Vector">
<use xlink:href="#path1_fill" transform="matrix(0.707107 -0.707107 -0.707107 -0.707107 -535.918 1463.8)" fill="#231F20"/>
</g>
<g id="Vector">
<use xlink:href="#path2_fill" transform="matrix(0.707107 -0.707107 -0.707107 -0.707107 -535.933 1312.8)" fill="#231F20"/>
</g>
<g id="Vector">
<use xlink:href="#path3_fill" transform="matrix(0.707107 -0.707107 -0.707107 -0.707107 -535.963 1326.09)" fill="#231F20"/>
</g>
<g id="Vector">
<use xlink:href="#path4_fill" transform="matrix(0.707107 -0.707107 -0.707107 -0.707107 -533.46 1476.64)" fill="#231F20"/>
</g>
<g id="Vector">
<use xlink:href="#path5_fill" transform="matrix(0.707107 -0.707107 -0.707107 -0.707107 -535.919 1298.98)" fill="#231F20"/>
</g>
<g id="Vector">
<use xlink:href="#path6_fill" transform="matrix(0.707107 -0.707107 -0.707107 -0.707107 -535.919 1299.84)" fill="#231F20"/>
</g>
<g id="Vector">
<use xlink:href="#path7_fill" transform="matrix(0.707107 -0.707107 -0.707107 -0.707107 -535.918 1288.6)" fill="#231F20"/>
</g>
<g id="Vector">
<use xlink:href="#path8_fill" transform="matrix(0.707107 -0.707107 -0.707107 -0.707107 -535.918 1289.46)" fill="#231F20"/>
</g>
<g id="Vector">
<use xlink:href="#path9_fill" transform="matrix(0.707107 -0.707107 -0.707107 -0.707107 -535.918 1278.22)" fill="#231F20"/>
</g>
<g id="Vector">
<use xlink:href="#path10_fill" transform="matrix(0.707107 -0.707107 -0.707107 -0.707107 -535.919 1279.08)" fill="#231F20"/>
</g>
</g>
<g id="Dojo">
<use xlink:href="#path11_fill" transform="translate(-517 1364)"/>
</g>
<g id="Indie">
<use xlink:href="#path12_fill" transform="translate(-517 1299)"/>
</g>
</g>
</g>
<defs>
<path id="path0_fill" d="M 115.875 136.943C 115.416 136.943 114.975 136.761 114.652 136.436L 11.558 33.3407C 2.90876 24.6932 -0.143611 17.4028 0.00515555 11.6234C 0.167761 5.31989 2.40964 1.08523 2.50478 0.910518C 2.76426 0.429621 3.23477 0.0974918 3.77621 0.017919C 4.31766 -0.0599239 4.86256 0.118249 5.25004 0.505734L 127.917 123.173C 128.593 123.849 128.593 124.942 127.917 125.619L 117.099 136.436C 116.774 136.76 116.333 136.943 115.875 136.943ZM 4.63249 4.78191C 3.05833 9.46459 2.47803 19.3687 14.004 30.8947L 115.876 132.767L 124.248 124.396L 4.63249 4.78191Z"/>
<path id="path1_fill" d="M 109.718 111.448C 109.275 111.448 108.832 111.278 108.495 110.941L 0.507277 2.95327C -0.169092 2.2769 -0.169092 1.18365 0.507277 0.507277C 1.18365 -0.169092 2.2769 -0.169092 2.95327 0.507277L 110.941 108.495C 111.617 109.171 111.617 110.264 110.941 110.941C 110.603 111.278 110.161 111.448 109.718 111.448Z"/>
<path id="path2_fill" d="M 28.5463 40.8593C 27.0344 40.8593 25.6263 40.285 24.585 39.2419L 0.507274 15.1642C -0.169095 14.4879 -0.169095 13.3946 0.507274 12.7182L 12.739 0.48652C 13.3877 -0.162171 14.5363 -0.162171 15.185 0.48652L 39.2627 24.5642C 40.3646 25.6661 40.9372 27.1521 40.8766 28.7522C 40.8178 30.3021 40.1639 31.7742 39.0395 32.9003L 32.9228 39.0171C 31.75 40.1882 30.1551 40.8593 28.5463 40.8593ZM 4.17628 13.9412L 27.031 36.7959C 27.8838 37.647 29.5046 37.5398 30.4768 36.5711L 36.5918 30.4543C 37.0987 29.9458 37.3927 29.2953 37.4187 28.619C 37.4429 27.9928 37.2284 27.4219 36.8167 27.0085L 13.962 4.15552L 4.17628 13.9412Z"/>
<path id="path3_fill" d="M 4.78449 29.5753C 3.45943 29.5753 2.24509 29.0909 1.3646 28.2104C 0.347451 27.195 -0.138637 25.7229 0.0343475 24.1712C 0.193493 22.7441 0.881967 21.355 1.97523 20.2601L 20.3237 1.91334C 22.6036 -0.368325 26.3159 -0.65548 28.2758 1.30097C 30.298 3.32316 30.0229 6.88837 27.6634 9.25134L 9.31495 27.5998C 8.05909 28.8556 6.40709 29.5753 4.78449 29.5753ZM 24.8559 3.39581C 24.1536 3.39581 23.3734 3.75562 22.7697 4.35934L 4.42296 22.7061C 3.89017 23.2388 3.5442 23.9118 3.47327 24.5535C 3.44041 24.8459 3.44041 25.3925 3.81059 25.761C 4.10294 26.0533 4.5008 26.1138 4.78449 26.1138C 5.48681 26.1138 6.26697 25.754 6.87069 25.1503L 25.2174 6.8036C 26.193 5.82624 26.4802 4.39739 25.8298 3.74524C 25.5374 3.45808 25.1396 3.39581 24.8559 3.39581Z"/>
<path id="path4_fill" d="M 9.06957 14.2755L 1.72984 14.2755C 0.77497 14.2755 0 13.5022 0 12.5456C 0 11.589 0.77497 10.8158 1.72984 10.8158L 7.33973 10.8158L 7.33973 1.72984C 7.33973 0.77324 8.11469 0 9.06957 0C 10.0244 0 10.7994 0.77324 10.7994 1.72984L 10.7994 12.5456C 10.7994 13.5005 10.0244 14.2755 9.06957 14.2755Z"/>
<path id="path5_fill" d="M 5.401 7.12912C 4.95816 7.12912 4.51532 6.95959 4.178 6.62227L 0.507277 2.95328C -0.169092 2.27691 -0.169092 1.18364 0.507277 0.507274C 1.18365 -0.169095 2.27691 -0.169095 2.95328 0.507274L 6.624 4.17628C 7.30037 4.85264 7.30037 5.9459 6.624 6.62227C 6.28668 6.95959 5.84384 7.12912 5.401 7.12912Z"/>
<path id="path6_fill" d="M 1.73028 8.35212C 1.28744 8.35212 0.844595 8.18259 0.507276 7.84527C -0.169093 7.1689 -0.169093 6.07564 0.507276 5.39928L 5.401 0.50728C 6.07737 -0.169089 7.17063 -0.169089 7.847 0.50728C 8.52337 1.18365 8.52337 2.27691 7.847 2.95327L 2.95328 7.84527C 2.61596 8.18259 2.17312 8.35212 1.73028 8.35212Z"/>
<path id="path7_fill" d="M 5.401 7.13085C 4.95816 7.13085 4.51532 6.96132 4.178 6.624L 0.507277 2.95328C -0.169092 2.27691 -0.169092 1.18364 0.507277 0.507275C 1.18365 -0.169094 2.27691 -0.169094 2.95328 0.507275L 6.624 4.17801C 7.30037 4.85437 7.30037 5.94763 6.624 6.624C 6.28668 6.96305 5.84384 7.13085 5.401 7.13085Z"/>
<path id="path8_fill" d="M 1.73028 8.35385C 1.28744 8.35385 0.844595 8.18432 0.507276 7.847C -0.169093 7.17063 -0.169093 6.07737 0.507276 5.40101L 5.401 0.507274C 6.07737 -0.169095 7.17063 -0.169095 7.847 0.507274C 8.52337 1.18364 8.52337 2.27691 7.847 2.95328L 2.95328 7.847C 2.61423 8.18432 2.17312 8.35385 1.73028 8.35385Z"/>
<path id="path9_fill" d="M 5.401 7.12911C 4.95816 7.12911 4.51532 6.95959 4.178 6.62227L 0.507277 2.95328C -0.169092 2.27691 -0.169092 1.18364 0.507277 0.507275C 1.18365 -0.169093 2.27691 -0.169093 2.95328 0.507275L 6.624 4.17628C 7.30037 4.85265 7.30037 5.9459 6.624 6.62227C 6.28495 6.96132 5.84211 7.12911 5.401 7.12911Z"/>
<path id="path10_fill" d="M 1.73028 8.35211C 1.28744 8.35211 0.844597 8.18259 0.507277 7.84527C -0.169092 7.1689 -0.169092 6.07565 0.507277 5.39928L 5.401 0.507274C 6.07737 -0.169095 7.17063 -0.169095 7.847 0.507274C 8.52337 1.18364 8.52337 2.27691 7.847 2.95328L 2.95328 7.84527C 2.61596 8.18259 2.17312 8.35211 1.73028 8.35211Z"/>
<path id="path11_fill" d="M 48.456 44.384C 48.456 51.488 46.368 57.2 42.192 61.52C 38.016 65.84 32.232 68 24.84 68L 2.808 68L 2.808 59.792L 7.848 59.792L 7.848 29.408L 2.808 29.408L 2.808 21.2L 24.264 21.2C 32.28 21.2 38.304 23.336 42.336 27.608C 46.416 31.88 48.456 37.472 48.456 44.384ZM 38.088 44.528C 38.088 34.448 33.408 29.408 24.048 29.408L 17.496 29.408L 17.496 59.792L 24.048 59.792C 28.56 59.792 32.016 58.592 34.416 56.192C 36.864 53.792 38.088 49.904 38.088 44.528ZM 86.4894 51.8C 86.4894 56.936 84.8094 61.04 81.4494 64.112C 78.0894 67.184 73.8174 68.72 68.6334 68.72C 63.6414 68.72 59.5614 67.28 56.3934 64.4C 53.2734 61.472 51.7134 57.392 51.7134 52.16C 51.7134 47.408 53.1534 43.328 56.0334 39.92C 58.9134 36.512 63.2814 34.808 69.1374 34.808C 74.9934 34.808 79.3374 36.512 82.1694 39.92C 85.0494 43.28 86.4894 47.24 86.4894 51.8ZM 76.9134 51.512C 76.9134 48.2 76.1454 45.776 74.6094 44.24C 73.0734 42.704 71.2014 41.936 68.9934 41.936C 66.5934 41.936 64.6974 42.8 63.3054 44.528C 61.9614 46.208 61.2894 48.584 61.2894 51.656C 61.2894 54.44 61.9134 56.792 63.1614 58.712C 64.4574 60.632 66.3774 61.592 68.9214 61.592C 71.3214 61.592 73.2414 60.704 74.6814 58.928C 76.1694 57.104 76.9134 54.632 76.9134 51.512ZM 93.8649 29.768L 93.8649 20.12L 103.153 20.12L 103.153 29.768L 93.8649 29.768ZM 103.153 66.848C 103.153 72.992 102.025 77.528 99.7689 80.456C 97.5129 83.432 93.2409 84.608 86.9529 83.984L 86.6649 77.864C 88.6329 77.864 90.3129 77.312 91.7049 76.208C 93.1449 75.152 93.8649 72.032 93.8649 66.848L 93.8649 42.584L 88.8249 42.584L 88.8249 35.528L 103.153 35.528L 103.153 66.848ZM 143.232 51.8C 143.232 56.936 141.552 61.04 138.192 64.112C 134.832 67.184 130.56 68.72 125.376 68.72C 120.384 68.72 116.304 67.28 113.136 64.4C 110.016 61.472 108.456 57.392 108.456 52.16C 108.456 47.408 109.896 43.328 112.776 39.92C 115.656 36.512 120.024 34.808 125.88 34.808C 131.736 34.808 136.08 36.512 138.912 39.92C 141.792 43.28 143.232 47.24 143.232 51.8ZM 133.656 51.512C 133.656 48.2 132.888 45.776 131.352 44.24C 129.816 42.704 127.944 41.936 125.736 41.936C 123.336 41.936 121.44 42.8 120.048 44.528C 118.704 46.208 118.032 48.584 118.032 51.656C 118.032 54.44 118.656 56.792 119.904 58.712C 121.2 60.632 123.12 61.592 125.664 61.592C 128.064 61.592 129.984 60.704 131.424 58.928C 132.912 57.104 133.656 54.632 133.656 51.512Z"/>
<path id="path12_fill" d="M 22.536 68L 2.808 68L 2.808 59.792L 7.848 59.792L 7.848 29.408L 2.808 29.408L 2.808 21.2L 22.536 21.2L 22.536 29.408L 17.496 29.408L 17.496 59.792L 22.536 59.792L 22.536 68ZM 66.7226 68L 48.7946 68L 48.7946 61.016L 53.1146 61.016L 53.1146 49.712C 53.1146 46.928 52.6346 44.936 51.6746 43.736C 50.7626 42.536 49.3946 41.936 47.5706 41.936C 45.3626 41.936 43.6586 42.632 42.4586 44.024C 41.2586 45.368 40.6346 47.144 40.5866 49.352L 40.5866 61.016L 44.9066 61.016L 44.9066 68L 26.9786 68L 26.9786 61.016L 31.2986 61.016L 31.2986 42.584L 26.6186 42.584L 26.6186 35.528L 40.5866 35.528L 40.5866 40.496C 42.7466 36.752 46.2266 34.88 51.0266 34.88C 54.0986 34.88 56.7626 35.792 59.0186 37.616C 61.2746 39.44 62.4026 42.272 62.4026 46.112L 62.4026 61.016L 66.7226 61.016L 66.7226 68ZM 107.602 68L 93.9943 68L 93.9943 61.952C 93.0823 63.824 91.7383 65.432 89.9623 66.776C 88.1863 68.072 85.8343 68.72 82.9063 68.72C 78.6343 68.72 75.2743 67.256 72.8263 64.328C 70.3783 61.4 69.1543 57.416 69.1543 52.376C 69.1543 47.528 70.3543 43.4 72.7543 39.992C 75.1543 36.584 78.7783 34.88 83.6263 34.88C 86.2663 34.88 88.4263 35.408 90.1063 36.464C 91.7863 37.52 93.0823 38.864 93.9943 40.496L 93.9943 25.52L 87.5143 25.52L 87.5143 18.464L 103.282 18.464L 103.282 61.016L 107.602 61.016L 107.602 68ZM 93.9943 51.584L 93.9943 50.792C 93.9943 48.104 93.2743 46.016 91.8343 44.528C 90.4423 42.992 88.6903 42.224 86.5783 42.224C 84.5143 42.224 82.6903 42.992 81.1063 44.528C 79.5703 46.064 78.8023 48.488 78.8023 51.8C 78.8023 54.92 79.5223 57.296 80.9623 58.928C 82.4023 60.56 84.1063 61.376 86.0743 61.376C 88.5223 61.376 90.4423 60.344 91.8343 58.28C 93.2743 56.216 93.9943 53.984 93.9943 51.584ZM 114.897 29.768L 114.897 20.12L 124.185 20.12L 124.185 29.768L 114.897 29.768ZM 128.865 68L 110.937 68L 110.937 61.016L 115.257 61.016L 115.257 42.584L 110.577 42.584L 110.577 35.528L 124.545 35.528L 124.545 61.016L 128.865 61.016L 128.865 68ZM 163.484 57.776C 163.244 60.656 161.828 63.2 159.236 65.408C 156.644 67.616 153.02 68.72 148.364 68.72C 143.516 68.72 139.508 67.352 136.34 64.616C 133.22 61.88 131.66 57.8 131.66 52.376C 131.66 47.384 133.076 43.232 135.908 39.92C 138.788 36.56 142.796 34.88 147.932 34.88C 152.444 34.88 156.092 36.176 158.876 38.768C 161.708 41.36 163.148 44.768 163.196 48.992C 163.196 50.576 163.028 52.136 162.692 53.672L 141.38 53.672C 141.908 58.808 144.452 61.376 149.012 61.376C 151.508 61.376 153.188 60.776 154.052 59.576C 154.964 58.376 155.516 57.296 155.708 56.336L 163.484 57.776ZM 153.62 48.272C 153.812 46.64 153.452 45.104 152.54 43.664C 151.676 42.224 150.14 41.504 147.932 41.504C 146.012 41.504 144.524 42.128 143.468 43.376C 142.412 44.624 141.74 46.256 141.452 48.272L 153.62 48.272Z"/>
</defs>
</svg>
